/* XPM */
static char * handle_xpm[] = {
"16 20 2 1",
"       c None",
".      c #ADA5C6",
"       .        ",
"       .        ",
"       .        ",
"       .        ",
"       .        ",
"       .        ",
"       .        ",
"       .        ",
"       .        ",
"       .........",
"       .        ",
"       .        ",
"       .        ",
"       .        ",
"       .        ",
"       .        ",
"       .        ",
"       .        ",
"       .        ",
"       .        "};
